<svg width="48" height="48" fill="none" xmlns="http://www.w3.org/2000/svg"><circle cx="24" cy="24" r="21" fill="#000"/><path fill-rule="evenodd" clip-rule="evenodd" d="M0 24.14v-.376c.012-.06.025-.122.039-.182.03-.136.06-.272.073-.409.046-.426.08-.854.113-1.282.07-.881.139-1.762.317-2.621C1.779 13.283 4.827 8.4 9.729 4.74 14.217 1.389 19.289-.176 24.9.016c1.607.046 3.205.26 4.768.64 4.96 1.223 9.135 3.764 12.479 7.627 3.89 4.5 5.783 9.773 5.852 15.693a20.995 20.995 0 01-.613 5.291c-1.963 7.937-6.685 13.542-14.165 16.813a21.723 21.723 0 01-8.369 1.809c-.183.02-.364.057-.54.111h-.564a3.288 3.288 0 00-.586-.112 20.909 20.909 0 01-5.669-.88c-6.582-1.955-11.505-5.965-14.722-12.034A22.67 22.67 0 01.11 24.73c-.02-.2-.057-.397-.11-.59zm18.58-2.39c-1.29-.017-2.416 1.097-2.454 2.42-.033 1.28 1.08 2.413 2.417 2.454 1.263.04 2.44-1.12 2.457-2.413.017-1.293-1.118-2.44-2.42-2.459v-.002zm9.17 2.418c.026-1.312 1.17-2.435 2.459-2.418v.002c1.301.018 2.429 1.17 2.416 2.461-.019 1.31-1.156 2.421-2.458 2.412-1.301-.01-2.443-1.173-2.417-2.457zm-6.21 2.457c-1.375 0-2.418 1.06-2.415 2.447a2.442 2.442 0 002.456 2.428A2.442 2.442 0 0024 29.035c-.003-1.366-1.07-2.41-2.46-2.408v-.002zm1.764-5.954a2.388 2.388 0 01-1.73.702v.002c-1.391.002-2.446-1.033-2.449-2.405-.003-1.352 1.088-2.47 2.418-2.47A2.476 2.476 0 0124 18.94a2.387 2.387 0 01-.696 1.73zm3.873 5.954a2.395 2.395 0 00-1.73.697 2.368 2.368 0 00-.697 1.722 2.422 2.422 0 001.218 2.13 2.449 2.449 0 002.463-.013 2.421 2.421 0 001.193-2.144c-.002-1.36-1.059-2.392-2.447-2.39v-.002zm2.448-7.657c0 1.37-1.056 2.405-2.446 2.405v.002a2.388 2.388 0 01-2.429-2.43 2.473 2.473 0 012.455-2.445c1.327 0 2.42 1.117 2.42 2.468zm3.368-1.343c-.884 0-1.495.604-1.493 1.484-.004.401.152.787.434 1.072.282.285.665.445 1.065.444.804-.007 1.516-.74 1.5-1.545a1.495 1.495 0 00-1.505-1.453l-.001-.002zm-8.64 14.625c.858-.005 1.521.633 1.521 1.468v-.005a1.5 1.5 0 11-2.998 0 1.463 1.463 0 011.477-1.463zm8.594-1.875c.858.006 1.538-.632 1.553-1.456.014-.804-.699-1.538-1.5-1.544a1.496 1.496 0 00-1.5 1.517c-.002.86.602 1.477 1.447 1.483zM25.45 15.311a1.453 1.453 0 01-1.066.439c-.856.002-1.513-.652-1.509-1.503a1.511 1.511 0 011.49-1.497 1.51 1.51 0 011.085 2.561zm-9.649 2.314c-.855-.006-1.537.634-1.55 1.455-.014.806.697 1.539 1.5 1.545.4.001.783-.159 1.065-.444.281-.285.438-.67.434-1.072 0-.857-.605-1.475-1.449-1.48v-.004zm1.449 11.25c.005.882-.603 1.496-1.48 1.496v.004c-.847 0-1.53-.68-1.52-1.488.01-.809.743-1.532 1.533-1.512a1.497 1.497 0 011.467 1.5zm13.31 7.496a1.322 1.322 0 001.315-1.284c.017-.702-.63-1.354-1.333-1.337a1.315 1.315 0 00-1.292 1.31c0 .761.548 1.316 1.31 1.315v-.004zM10.125 23.81c-.012-.72.593-1.31 1.337-1.31a1.25 1.25 0 01.918.37c.243.243.377.577.37.924.004.353-.134.694-.382.944a1.3 1.3 0 01-.936.387 1.343 1.343 0 01-1.307-1.315zm26.786-1.31a1.25 1.25 0 00-.916.368 1.27 1.27 0 00-.37.923c-.004.354.134.694.382.945.247.251.585.391.936.389a1.343 1.343 0 001.307-1.316c.011-.72-.593-1.312-1.339-1.309zm-7.66-9.541c-.011-.769.527-1.33 1.29-1.334a1.321 1.321 0 011.334 1.316 1.363 1.363 0 01-1.314 1.309 1.322 1.322 0 01-1.31-1.291zm-10.126-.027c0-.761-.551-1.312-1.315-1.307a1.323 1.323 0 00-1.31 1.292c-.011.682.598 1.31 1.29 1.333a1.323 1.323 0 001.335-1.318zm-.388 21.205c.249.248.388.585.388.936l-.001.002c0 .76-.558 1.308-1.322 1.3a1.323 1.323 0 01-1.302-1.302c-.006-.686.606-1.309 1.3-1.323.35 0 .688.138.937.387zm19.159-16.89A1.142 1.142 0 0039 16.118c-.012-.593-.545-1.121-1.127-1.117a1.151 1.151 0 00-1.123 1.165 1.135 1.135 0 001.145 1.085v-.002zM12 16.166a1.136 1.136 0 01-1.146 1.083l-.001.002a1.142 1.142 0 01-1.103-1.132c.03-.611.52-1.098 1.128-1.118A1.15 1.15 0 0112 16.165zm0 15.728a1.126 1.126 0 00-2.249-.06c-.029.6.52 1.167 1.122 1.167A1.15 1.15 0 0012 31.893zm24.75-.056a1.138 1.138 0 011.143-1.087c.61.017 1.098.514 1.107 1.128-.01.593-.542 1.122-1.124 1.122a1.154 1.154 0 01-1.126-1.163zM24.172 7.125a.938.938 0 10.953.943.956.956 0 00-.953-.943zm.953 32.443a.938.938 0 01-.937.932.959.959 0 01-.938-.956.937.937 0 011.875.024zM6.891 22.875c-.531.012-.907.424-.89.979 0 .242.098.473.272.642.174.169.41.26.653.254.342.002.66-.18.827-.477a.933.933 0 00-.017-.95.943.943 0 00-.845-.446v-.002zm35.227.27c.17.172.262.405.257.646.008.551-.38.959-.908.959a.941.941 0 01-.838-.463.935.935 0 01.004-.955.942.942 0 01.842-.456c.242 0 .474.097.643.269zm-9.305-13.02a.911.911 0 00.664-.269.94.94 0 00.273-.67c-.008-.493-.48-.952-.964-.936a.992.992 0 00-.911.938.939.939 0 00.274.67.91.91 0 00.664.267zm-16.578-.277a.91.91 0 01-.66.276.91.91 0 01-.667-.258.94.94 0 01-.283-.666c-.002-.49.466-.958.95-.95.493.029.89.425.925.925a.939.939 0 01-.265.673zm-.68 28.027a.902.902 0 00-.662.285.988.988 0 00-.268.694c.044.511.456.901.947.896.49-.005.895-.405.928-.917a.984.984 0 00-.28-.687.898.898 0 00-.664-.27zm16.594.269a.911.911 0 01.664-.268.913.913 0 01.664.269.941.941 0 01.273.67c-.008.493-.48.952-.963.934a.992.992 0 01-.912-.936.939.939 0 01.274-.67z" fill="#6B65FF"/></svg>