<svg width="16" height="16" viewBox="0 0 16 16" fill="none" xmlns="http://www.w3.org/2000/svg">
<path d="M12.2699 7.43076C12.0115 6.84336 11.6415 6.32288 11.1709 5.8856L10.7851 5.52741C10.7281 5.47649 10.638 5.49923 10.6128 5.57172L10.4405 6.07196C10.333 6.38583 10.1356 6.70631 9.85581 7.02165C9.8416 7.0372 9.82216 7.04674 9.80142 7.0485C9.78039 7.05041 9.75965 7.04307 9.74442 7.0284C9.72585 7.0124 9.71657 6.98819 9.71802 6.96398C9.76704 6.15648 9.52845 5.24582 9.00599 4.25474C8.57376 3.43125 7.97328 2.78868 7.22282 2.34083L6.67527 2.01478C6.60362 1.97178 6.51224 2.02813 6.51616 2.11265L6.54531 2.75639C6.56518 3.19632 6.51485 3.58532 6.39548 3.90859C6.24957 4.30419 6.04012 4.67177 5.77237 5.00164C5.5841 5.23232 5.37335 5.44025 5.14273 5.62C4.5846 6.05317 4.12452 6.61782 3.81296 7.24953C3.49879 7.88814 3.33301 8.60305 3.33301 9.31928C3.33301 9.95232 3.4563 10.5652 3.70026 11.1434C3.93625 11.7 4.2729 12.2017 4.70121 12.6307C5.13069 13.0599 5.62921 13.3979 6.18473 13.6327C6.76012 13.8767 7.37004 14.0001 7.99982 14.0001C8.62946 14.0001 9.23937 13.8767 9.81476 13.634C10.3703 13.3992 10.8701 13.0626 11.2983 12.6321C11.7278 12.2028 12.0646 11.7013 12.2991 11.1446C12.5431 10.5666 12.6663 9.95349 12.6663 9.3206C12.6663 8.666 12.5338 8.03033 12.2699 7.43076Z" fill="url(#paint0_linear)"/>
<defs>
<linearGradient id="paint0_linear" x1="7.99967" y1="2" x2="7.99967" y2="14.0001" gradientUnits="userSpaceOnUse">
<stop stop-color="#FDC80D"/>
<stop offset="1" stop-color="#FA8E03"/>
</linearGradient>
</defs>
</svg>
